<?xml version="1.0" encoding="UTF-8"?>
<!-- Generated by Pixelmator Pro 3.1.1 -->
<svg width="1100" height="400" viewBox="0 0 1100 400" xmlns="http://www.w3.org/2000/svg" xmlns:xlink="http://www.w3.org/1999/xlink">
    <g id="Group">
        <g id="Shadow">
            <g id="g1">
                <path id="Path" fill="#000000" fill-opacity="0.5" stroke="none" d="M 141.484207 315.876099 L 101.620514 315.876099 L 101.620514 114.276337 L 141.484207 114.276337 L 141.484207 215.076218 L 215.801514 114.276337 L 261.075287 114.276337 L 198.147598 199.236237 L 261.075287 315.876099 L 215.801514 315.876099 L 171.951462 234.372192 L 141.484207 275.556122 L 141.484207 315.876099 Z"/>
            </g>
            <g id="g2">
                <path id="path1" fill="#000000" fill-opacity="0.5" stroke="none" d="M 310.964996 315.876099 L 273.094513 315.876099 L 273.094513 165.252274 L 282.206207 165.252274 L 294.734802 183.108261 C 300.714355 177.636261 307.832855 173.028275 315.520874 170.14827 C 323.493591 166.98027 331.466339 165.540268 339.723816 165.540268 L 373.323212 165.540268 L 373.323212 203.844223 L 339.723816 203.844223 C 335.737457 203.844223 332.035828 204.420227 328.618927 206.148224 C 324.917297 207.588226 321.785156 209.604218 319.222504 212.196213 C 316.659821 214.788208 314.666626 217.956207 313.24295 221.412201 C 311.819244 225.156204 310.964996 228.900192 310.964996 232.93219 L 310.964996 315.876099 Z"/>
            </g>
            <g id="g3">
                <path id="path2" fill="#000000" fill-opacity="0.5" stroke="none" d="M 429.150085 315.876099 L 390.994843 315.876099 L 390.994843 165.252274 L 429.150085 165.252274 L 429.150085 315.876099 Z M 410.072479 154.020294 L 394.411743 132.996307 L 435.699127 94.116364 L 458.478363 123.49234 L 410.072479 154.020294 Z"/>
            </g>
            <g id="g4">
                <path id="path3" fill="#000000" fill-opacity="0.5" stroke="none" d="M 532.749329 315.876099 C 523.637634 315.876099 514.810669 314.148071 506.837952 310.692078 C 498.865204 306.94809 491.746704 302.340088 485.767151 296.004089 C 479.502838 289.956116 474.946991 282.756134 471.245361 274.692139 C 467.828491 266.628143 466.120026 257.700134 466.120026 248.484161 L 466.120026 203.844223 L 447.611877 203.844223 L 447.611877 165.540268 L 466.120026 165.540268 L 466.120026 105.348358 L 503.99054 105.348358 L 503.99054 165.540268 L 561.508179 165.540268 L 561.508179 203.844223 L 503.99054 203.844223 L 503.99054 248.484161 C 503.99054 252.516159 504.844757 256.260162 506.268463 259.716156 C 507.692169 263.460144 509.685364 266.340149 512.248047 268.932129 C 514.810669 271.812134 517.94281 273.828125 521.359741 275.268127 C 525.06134 276.996124 528.763 277.572144 532.749329 277.572144 L 561.508179 277.572144 L 561.508179 315.876099 L 532.749329 315.876099 Z"/>
            </g>
            <g id="g5">
                <path id="path4" fill="#000000" fill-opacity="0.5" stroke="none" d="M 621.016785 315.876099 L 582.861572 315.876099 L 582.861572 165.252274 L 621.016785 165.252274 L 621.016785 315.876099 Z M 601.939209 154.020294 L 586.278442 132.996307 L 627.565857 94.116364 L 650.345093 123.49234 L 601.939209 154.020294 Z"/>
            </g>
            <g id="g6">
                <path id="path5" fill="#000000" fill-opacity="0.5" stroke="none" d="M 688.16925 315.876099 L 650.014038 315.876099 L 650.014038 105.348358 L 688.16925 105.348358 L 688.16925 238.11618 L 744.832642 165.540268 L 788.397949 165.540268 L 739.137817 228.324203 L 788.397949 315.876099 L 744.832642 315.876099 L 714.650146 261.156158 L 688.16925 296.580109 L 688.16925 315.876099 Z"/>
            </g>
            <g id="g7">
                <path id="path6" fill="#000000" fill-opacity="0.5" stroke="none" d="M 848.21167 124.356323 C 848.21167 127.812317 847.642212 131.268341 846.218506 134.43631 C 844.7948 137.316315 843.086365 140.196289 840.808411 142.500305 C 838.530457 144.804306 835.683105 146.532303 832.550903 147.97229 C 829.418762 149.124298 826.286621 149.988297 822.585022 149.988297 C 819.168091 149.988297 815.751221 149.124298 812.61908 147.97229 C 809.486938 146.532303 806.924255 144.804306 804.646362 142.500305 C 802.368408 140.196289 800.659973 137.316315 799.236267 134.43631 C 797.812561 131.268341 797.243103 127.812317 797.243103 124.356323 C 797.243103 120.90033 797.812561 117.444336 799.236267 114.564331 C 800.659973 111.396362 802.368408 108.516327 804.646362 106.212341 C 806.924255 103.908356 809.486938 102.180359 812.61908 100.740356 C 815.751221 99.300354 819.168091 98.724365 822.585022 98.724365 C 826.286621 98.724365 829.418762 99.300354 832.550903 100.740356 C 835.683105 102.180359 838.530457 103.908356 840.808411 106.212341 C 843.086365 108.516327 844.7948 111.396362 846.218506 114.564331 C 847.642212 117.444336 848.21167 120.90033 848.21167 124.356323 Z M 841.662659 315.876099 L 803.507385 315.876099 L 803.507385 165.252274 L 841.662659 165.252274 L 841.662659 315.876099 Z"/>
            </g>
            <g id="g8">
                <path id="path7" fill="#000000" fill-opacity="0.5" stroke="none" d="M 908.530334 315.876099 L 870.659851 315.876099 L 870.659851 165.252274 L 879.771545 165.252274 L 892.30011 179.940262 C 898.279663 174.180267 905.398193 169.86026 913.086182 166.98027 C 920.77417 163.812271 929.031677 162.372284 937.289124 162.372284 C 946.400879 162.372284 954.943054 164.100281 962.915833 167.556274 C 971.173279 171.012268 978.291809 175.908264 984.271362 181.956253 C 990.250916 188.292252 995.091492 195.492233 998.508362 203.556229 C 1001.925293 211.908218 1003.633728 220.548203 1003.633728 229.764191 L 1003.633728 315.876099 L 965.763184 315.876099 L 965.763184 229.764191 C 965.763184 225.732193 964.908997 222.276199 963.485291 218.532211 C 962.061584 215.076218 960.06842 211.908218 957.221008 209.316223 C 954.658325 206.724213 951.810913 204.708221 948.394043 203.268219 C 944.977173 201.828232 941.275513 200.964233 937.289124 200.964233 C 933.302795 200.964233 929.601135 201.828232 926.184265 203.268219 C 922.482605 204.708221 919.350464 206.724213 916.787842 209.316223 C 914.225159 211.908218 912.231995 215.076218 910.808289 218.532211 C 909.384583 222.276199 908.530334 225.732193 908.530334 229.764191 L 908.530334 315.876099 Z"/>
            </g>
        </g>
        <g id="Amigo">
            <linearGradient id="linearGradient1" x1="94.378279" y1="231.156467" x2="885.618249" y2="231.156467" gradientUnits="userSpaceOnUse">
                <stop offset="1e-05" stop-color="#21a9ff" stop-opacity="1"/>
                <stop offset="1" stop-color="#fa3ebe" stop-opacity="1"/>
            </linearGradient>
            <path id="path8" fill="url(#linearGradient1)" stroke="none" d="M 136.513351 310.876068 L 96.609375 310.876068 L 96.609375 109.218445 L 136.513351 109.218445 L 136.513351 210.047195 L 210.756989 109.218445 L 256.081146 109.218445 L 193.091949 194.310928 L 256.081146 310.876068 L 210.756989 310.876068 L 166.945496 229.316971 L 136.513351 270.51532 L 136.513351 310.876068 Z"/>
            <linearGradient id="linearGradient2" x1="94.378279" y1="231.156467" x2="885.618249" y2="231.156467" gradientUnits="userSpaceOnUse">
                <stop offset="1e-05" stop-color="#21a9ff" stop-opacity="1"/>
                <stop offset="1" stop-color="#fa3ebe" stop-opacity="1"/>
            </linearGradient>
            <path id="path9" fill="url(#linearGradient2)" stroke="none" d="M 305.979095 310.876068 L 268.037903 310.876068 L 268.037903 160.270355 L 277.203613 160.270355 L 289.718597 178.137512 C 295.841064 172.509628 302.791809 168.174881 310.570892 165.115067 C 318.368042 162.073441 326.417236 160.561737 334.772614 160.561737 L 368.265991 160.561737 L 368.265991 198.809647 L 334.772614 198.809647 C 330.774994 198.809647 327.02951 199.556396 323.500092 201.049896 C 319.988708 202.5616 316.92746 204.61969 314.334473 207.242355 C 311.741394 209.865158 309.688538 212.96138 308.212006 216.531174 C 306.735413 220.082764 305.979095 223.889343 305.979095 227.91449 L 305.979095 310.876068 Z"/>
            <linearGradient id="linearGradient3" x1="94.378279" y1="231.156467" x2="885.618249" y2="231.156467" gradientUnits="userSpaceOnUse">
                <stop offset="1e-05" stop-color="#21a9ff" stop-opacity="1"/>
                <stop offset="1" stop-color="#fa3ebe" stop-opacity="1"/>
            </linearGradient>
            <path id="path10" fill="url(#linearGradient3)" stroke="none" d="M 424.160339 310.876068 L 385.931061 310.876068 L 385.931061 160.270355 L 424.160339 160.270355 L 424.160339 310.876068 Z M 405.12677 149.014465 L 389.406464 128.069122 L 430.69696 89.110901 L 453.494049 118.507263 L 405.12677 149.014465 Z"/>
            <linearGradient id="linearGradient4" x1="94.378279" y1="231.156467" x2="885.618249" y2="231.156467" gradientUnits="userSpaceOnUse">
                <stop offset="1e-05" stop-color="#21a9ff" stop-opacity="1"/>
                <stop offset="1" stop-color="#fa3ebe" stop-opacity="1"/>
            </linearGradient>
            <path id="path11" fill="url(#linearGradient4)" stroke="none" d="M 527.737732 310.876068 C 518.572083 310.876068 509.946655 309.127594 501.879395 305.612396 C 493.8302 302.097229 486.753357 297.270721 480.684967 291.132874 C 474.616486 284.976807 469.844604 277.837097 466.369202 269.677551 C 462.89386 261.518066 461.147156 252.812149 461.147156 243.523331 L 461.147156 198.809647 L 442.653748 198.809647 L 442.653748 160.561737 L 461.147156 160.561737 L 461.147156 100.366791 L 498.96225 100.366791 L 498.96225 160.561737 L 556.53125 160.561737 L 556.53125 198.809647 L 498.96225 198.809647 L 498.96225 243.523331 C 498.96225 247.548477 499.700562 251.318649 501.19516 254.833694 C 502.671753 258.367065 504.706543 261.427032 507.299622 264.049683 C 509.910645 266.672363 512.953857 268.766968 516.483276 270.315125 C 520.012634 271.86322 523.758118 272.628174 527.737732 272.628174 L 556.53125 272.628174 L 556.53125 310.876068 L 527.737732 310.876068 Z"/>
            <linearGradient id="linearGradient5" x1="94.378279" y1="231.156467" x2="885.618249" y2="231.156467" gradientUnits="userSpaceOnUse">
                <stop offset="1e-05" stop-color="#21a9ff" stop-opacity="1"/>
                <stop offset="1" stop-color="#fa3ebe" stop-opacity="1"/>
            </linearGradient>
            <path id="path12" fill="url(#linearGradient5)" stroke="none" d="M 616.027039 310.876068 L 577.797729 310.876068 L 577.797729 160.270355 L 616.027039 160.270355 L 616.027039 310.876068 Z M 596.993469 149.014465 L 581.273132 128.069122 L 622.56366 89.110901 L 645.360779 118.507263 L 596.993469 149.014465 Z"/>
            <linearGradient id="linearGradient6" x1="94.378279" y1="231.156467" x2="885.618249" y2="231.156467" gradientUnits="userSpaceOnUse">
                <stop offset="1e-05" stop-color="#21a9ff" stop-opacity="1"/>
                <stop offset="1" stop-color="#fa3ebe" stop-opacity="1"/>
            </linearGradient>
            <path id="path13" fill="url(#linearGradient6)" stroke="none" d="M 683.193909 310.876068 L 644.946594 310.876068 L 644.946594 100.366791 L 683.193909 100.366791 L 683.193909 233.12355 L 739.772461 160.561737 L 783.421997 160.561737 L 734.064331 223.270142 L 783.421997 310.876068 L 739.772461 310.876068 L 709.610535 256.18158 L 683.193909 291.624634 L 683.193909 310.876068 Z"/>
            <linearGradient id="linearGradient7" x1="94.378279" y1="231.156467" x2="885.618249" y2="231.156467" gradientUnits="userSpaceOnUse">
                <stop offset="1e-05" stop-color="#21a9ff" stop-opacity="1"/>
                <stop offset="1" stop-color="#fa3ebe" stop-opacity="1"/>
            </linearGradient>
            <path id="path14" fill="url(#linearGradient7)" stroke="none" d="M 843.205933 119.345032 C 843.205933 122.914825 842.539612 126.247833 841.189087 129.325867 C 839.856628 132.422211 838.019775 135.117706 835.714905 137.412567 C 833.392029 139.725647 830.672913 141.547089 827.575562 142.913025 C 824.460388 144.260757 821.147095 144.952896 817.635742 144.952896 C 814.106323 144.952896 810.792908 144.260757 807.695679 142.913025 C 804.580383 141.547089 801.8974 139.725647 799.62854 137.412567 C 797.359619 135.117706 795.540771 132.422211 794.208313 129.325867 C 792.857788 126.247833 792.191528 122.914825 792.191528 119.345032 C 792.191528 115.88446 792.857788 112.569641 794.208313 109.437012 C 795.540771 106.30426 797.359619 103.572357 799.62854 101.277374 C 801.8974 98.982483 804.580383 97.161194 807.695679 95.795258 C 810.792908 94.429169 814.106323 93.755371 817.635742 93.755371 C 821.147095 93.755371 824.460388 94.429169 827.575562 95.795258 C 830.672913 97.161194 833.392029 98.982483 835.714905 101.277374 C 838.019775 103.572357 839.856628 106.30426 841.189087 109.437012 C 842.539612 112.569641 843.205933 115.88446 843.205933 119.345032 Z M 836.687317 310.876068 L 798.440002 310.876068 L 798.440002 160.270355 L 836.687317 160.270355 L 836.687317 310.876068 Z"/>
            <linearGradient id="linearGradient8" x1="94.378279" y1="231.156467" x2="885.618249" y2="231.156467" gradientUnits="userSpaceOnUse">
                <stop offset="1e-05" stop-color="#21a9ff" stop-opacity="1"/>
                <stop offset="1" stop-color="#fa3ebe" stop-opacity="1"/>
            </linearGradient>
            <path id="path15" fill="url(#linearGradient8)" stroke="none" d="M 903.547974 310.876068 L 865.606812 310.876068 L 865.606812 160.270355 L 874.772522 160.270355 L 887.287476 174.895508 C 893.410034 169.267639 900.324707 164.932892 908.06781 161.891281 C 915.810913 158.849655 923.89624 157.319748 932.341492 157.319748 C 941.417236 157.319748 949.988586 159.068237 958.055786 162.601624 C 966.122986 166.116806 973.16394 170.943314 979.196289 177.081161 C 985.210693 183.219009 989.9646 190.395142 993.440002 198.591064 C 996.915283 206.78714 998.661987 215.529434 998.661987 224.818268 L 998.661987 310.876068 L 960.702881 310.876068 L 960.702881 224.818268 C 960.702881 220.884125 959.9646 217.150497 958.470032 213.63533 C 956.993408 210.120148 954.958618 207.060318 952.347473 204.437515 C 949.754517 201.796646 946.747314 199.738571 943.325867 198.245056 C 939.886475 196.733353 936.231079 195.986603 932.341492 195.986603 C 928.343872 195.986603 924.598389 196.733353 921.06897 198.245056 C 917.557617 199.738571 914.496399 201.796646 911.903442 204.437515 C 909.292297 207.060318 907.257507 210.120148 905.780884 213.63533 C 904.304321 217.150497 903.547974 220.884125 903.547974 224.818268 L 903.547974 310.876068 Z"/>
        </g>
    </g>
</svg>
